<?xml version="1.0" encoding="utf-8"?>
<!-- Generator: Adobe Illustrator 26.5.1, SVG Export Plug-In . SVG Version: 6.00 Build 0)  -->
<svg version="1.1" id="Layer_1" xmlns="http://www.w3.org/2000/svg" xmlns:xlink="http://www.w3.org/1999/xlink" x="0px" y="0px"
	 viewBox="0 0 722.3 417.5" style="enable-background:new 0 0 722.3 417.5;" xml:space="preserve">
<style type="text/css">
	.st0{fill:#231F20;}
	.st1{fill:none;stroke:#000000;stroke-width:0.5;stroke-linecap:round;stroke-linejoin:round;stroke-miterlimit:10;}
	.st2{fill:none;stroke:#000000;stroke-miterlimit:10;}
	.st3{fill:none;stroke:#EC1C24;stroke-miterlimit:10;}
	.st4{fill:none;stroke:#000000;stroke-width:4;stroke-miterlimit:10;}
</style>
<g>
	<path class="st0" d="M61.6,52.7h-1.6L56.6,40l-3.5,12.6h-1.6l-4-15.8h1.8l3.1,12.7l3.5-12.7h1.5l3.5,12.7l3.1-12.7h1.8L61.6,52.7z"
		/>
	<path class="st0" d="M68.3,52.7V36.9H70v15.8H68.3z"/>
	<path class="st0" d="M84.6,52.7L76.2,40v12.6h-1.7V36.9h1.6l8.4,12.6V36.9h1.7v15.8H84.6z"/>
	<path class="st0" d="M100.1,51.2c-1,1-2.3,1.5-4,1.5h-5.4V36.9h5.4c1.6,0,3,0.5,4,1.5c1.6,1.6,1.5,4.1,1.5,6.2
		S101.8,49.6,100.1,51.2z M98.9,39.6c-0.8-0.8-1.9-1.2-3.1-1.2h-3.4v12.8h3.4c1.2,0,2.3-0.3,3.1-1.2c1.1-1.1,1-3.5,1-5.4
		S100,40.7,98.9,39.6z"/>
	<path class="st0" d="M114.6,51.2c-1.1,1.1-2.5,1.6-4,1.6c-1.6,0-3-0.6-4-1.6c-1.5-1.5-1.5-3-1.5-6.4s0-4.9,1.5-6.4
		c1.1-1.1,2.5-1.6,4-1.6c1.6,0,3,0.6,4,1.6c1.5,1.5,1.5,3,1.5,6.4S116.1,49.7,114.6,51.2z M113.3,39.4c-0.7-0.7-1.7-1.1-2.7-1.1
		s-2,0.4-2.7,1.1c-1,1-1.1,2.1-1.1,5.4c0,3.3,0.1,4.4,1.1,5.4c0.7,0.7,1.7,1.1,2.7,1.1s2-0.4,2.7-1.1c1-1,1.1-2.1,1.1-5.4
		C114.4,41.5,114.3,40.4,113.3,39.4z"/>
	<path class="st0" d="M132,52.7h-1.6L127,40l-3.5,12.6h-1.6l-4-15.8h1.8l3.1,12.7l3.5-12.7h1.5l3.5,12.7l3.1-12.7h1.8L132,52.7z"/>
	<path class="st0" d="M145.9,38.4v5.8h6.9v1.5h-6.9v7h-1.7V36.9h9.8v1.5H145.9z"/>
	<path class="st0" d="M166.1,52.7l-3.6-7h-3.8v7H157V36.9h6c2.7,0,4.7,1.7,4.7,4.4c0,2.3-1.4,3.8-3.4,4.2l3.7,7.2H166.1z
		 M162.9,38.4h-4.2v5.8h4.2c1.8,0,3.1-1,3.1-2.9S164.8,38.4,162.9,38.4z"/>
	<path class="st0" d="M180.5,51.2c-1.1,1.1-2.5,1.6-4,1.6c-1.6,0-3-0.6-4-1.6c-1.5-1.5-1.5-3-1.5-6.4s0-4.9,1.5-6.4
		c1.1-1.1,2.5-1.6,4-1.6c1.6,0,3,0.6,4,1.6c1.5,1.5,1.5,3,1.5,6.4S182,49.7,180.5,51.2z M179.2,39.4c-0.7-0.7-1.7-1.1-2.7-1.1
		s-2,0.4-2.7,1.1c-1,1-1.1,2.1-1.1,5.4c0,3.3,0.1,4.4,1.1,5.4c0.7,0.7,1.7,1.1,2.7,1.1s2-0.4,2.7-1.1c1-1,1.1-2.1,1.1-5.4
		C180.3,41.5,180.2,40.4,179.2,39.4z"/>
	<path class="st0" d="M196,52.7L187.6,40v12.6H186V36.9h1.6l8.4,12.6V36.9h1.7v15.8H196z"/>
	<path class="st0" d="M206.8,38.4v14.3h-1.7V38.4h-4.6v-1.5h10.8v1.5H206.8z"/>
</g>
<g>
	<path class="st0" d="M108.1,352.4c-2.1,0-3.6-1.5-3.6-3.5v-7h1.1v6.9c0,1.6,1,2.6,2.5,2.6s2.5-1,2.5-2.6v-6.9h1.1v7
		C111.7,350.9,110.2,352.4,108.1,352.4z"/>
	<path class="st0" d="M117.3,352.4c-1.6,0-2.6-0.4-3.6-1.4l0.8-0.8c0.9,0.9,1.7,1.1,2.8,1.1c1.5,0,2.5-0.7,2.5-1.9
		c0-0.5-0.2-1-0.5-1.3s-0.6-0.4-1.4-0.5l-1.2-0.2c-0.8-0.1-1.5-0.4-1.9-0.8c-0.5-0.5-0.8-1.1-0.8-1.9c0-1.8,1.3-2.9,3.3-2.9
		c1.3,0,2.2,0.3,3.1,1.1l-0.7,0.7c-0.6-0.6-1.3-0.9-2.4-0.9c-1.4,0-2.2,0.8-2.2,1.9c0,0.5,0.1,0.9,0.5,1.2s0.9,0.5,1.4,0.6l1.1,0.2
		c1,0.1,1.5,0.4,1.9,0.7c0.6,0.5,0.9,1.2,0.9,2.1C120.9,351.2,119.5,352.4,117.3,352.4z"/>
	<path class="st0" d="M127.3,352.3h-4.1v-10.4h3.9c1.8,0,3.1,1,3.1,2.8c0,1.1-0.7,2-1.5,2.3c1,0.4,1.7,1.2,1.7,2.5
		C130.4,351.3,129.1,352.3,127.3,352.3z M127.1,342.8h-2.7v3.6h2.7c1.2,0,2.1-0.6,2.1-1.8S128.2,342.8,127.1,342.8z M127.2,347.5
		h-2.8v3.8h2.8c1.3,0,2.1-0.7,2.1-1.9S128.5,347.5,127.2,347.5z"/>
	<path class="st0" d="M140.5,348h-2.8v4.3h-1.1v-10.4h3.9c1.9,0,3.2,1.2,3.2,3.1S142.4,348,140.5,348z M140.4,342.8h-2.7v4.1h2.7
		c1.3,0,2.2-0.7,2.2-2.1S141.7,342.8,140.4,342.8z"/>
	<path class="st0" d="M150.2,351.6c-0.5,0.5-1.2,0.8-2.1,0.8s-1.6-0.3-2.1-0.8c-0.7-0.7-0.9-1.8-0.9-2.9s0.1-2.1,0.9-2.9
		c0.5-0.5,1.2-0.8,2.1-0.8s1.6,0.3,2.1,0.8c0.7,0.7,0.9,1.8,0.9,2.9S150.9,350.8,150.2,351.6z M149.4,346.5
		c-0.3-0.3-0.8-0.5-1.3-0.5s-1,0.2-1.3,0.5c-0.5,0.5-0.6,1.4-0.6,2.2s0.1,1.7,0.6,2.2c0.3,0.3,0.8,0.5,1.3,0.5s1-0.2,1.3-0.5
		c0.5-0.5,0.6-1.4,0.6-2.2S150,347,149.4,346.5z"/>
	<path class="st0" d="M157.3,346.5c-0.4-0.4-0.7-0.5-1.2-0.5c-1.1,0-1.7,0.8-1.7,1.9v4.4h-1.1v-7.2h1.1v0.9c0.4-0.6,1.2-1,2-1
		c0.7,0,1.2,0.2,1.7,0.7L157.3,346.5z"/>
	<path class="st0" d="M161.5,352.3c-1.2,0-1.8-0.9-1.8-1.9v-4.4h-0.9v-0.8h0.9v-2.3h1.1v2.3h1.5v0.8h-1.5v4.4c0,0.7,0.3,1.1,1,1.1
		h0.6v0.9H161.5z"/>
</g>
<g>
	<path class="st0" d="M117.6,95.4c-0.6,0.6-1.6,1-2.6,1h-3.6V85.9h3.6c1.1,0,2,0.3,2.6,1c1.1,1.1,1,2.7,1,4.1S118.7,94.3,117.6,95.4
		z M116.8,87.7c-0.5-0.6-1.2-0.8-2.1-0.8h-2.3v8.4h2.3c0.8,0,1.5-0.2,2.1-0.8c0.7-0.7,0.7-2.3,0.7-3.6S117.5,88.4,116.8,87.7z"/>
	<path class="st0" d="M121,87.1v-1.2h1.2v1.2H121z M121.1,96.3v-7.2h1.1v7.2H121.1z"/>
	<path class="st0" d="M127,96.4c-1.2,0-2.2-0.3-3-1l0.7-0.7c0.6,0.6,1.3,0.8,2.2,0.8c1.2,0,1.9-0.4,1.9-1.3c0-0.6-0.4-1-1.2-1.1
		l-1.2-0.1c-1.4-0.1-2.2-0.7-2.2-1.9c0-1.3,1.1-2.1,2.7-2.1c1,0,1.9,0.2,2.6,0.8l-0.7,0.7c-0.5-0.4-1.2-0.6-1.9-0.6
		c-1.1,0-1.6,0.5-1.6,1.2c0,0.6,0.4,1,1.3,1.1l1.2,0.1c1.3,0.1,2.1,0.6,2.1,1.9C130,95.6,128.8,96.4,127,96.4z"/>
	<path class="st0" d="M136.9,95.8c-0.4,0.4-1,0.6-1.8,0.6c-0.8,0-1.5-0.2-2-0.9v4.1H132V89.1h1.1V90c0.6-0.8,1.2-0.9,2-0.9
		c0.7,0,1.4,0.2,1.8,0.6c0.7,0.7,0.9,1.9,0.9,3.1S137.6,95.1,136.9,95.8z M134.9,90c-1.6,0-1.8,1.3-1.8,2.8s0.2,2.8,1.8,2.8
		s1.8-1.3,1.8-2.8S136.5,90,134.9,90z"/>
	<path class="st0" d="M141.8,96.3c-1.3,0-1.8-0.8-1.8-1.9v-8.5h1.1v8.5c0,0.7,0.2,1.1,1,1.1h0.6v0.9H141.8z"/>
	<path class="st0" d="M148.5,96.3v-0.7c-0.6,0.6-1.1,0.8-2.1,0.8c-1,0-1.6-0.2-2-0.7c-0.4-0.4-0.5-0.9-0.5-1.5
		c0-1.3,0.9-2.1,2.5-2.1h2.2v-0.7c0-1.1-0.5-1.6-1.8-1.6c-0.9,0-1.4,0.2-1.8,0.8l-0.7-0.7c0.6-0.8,1.4-1.1,2.5-1.1
		c1.9,0,2.9,0.8,2.9,2.4v4.9H148.5z M148.5,93h-2c-1.1,0-1.6,0.4-1.6,1.3s0.5,1.2,1.7,1.2c0.6,0,1.2,0,1.6-0.5
		c0.2-0.2,0.4-0.6,0.4-1.2V93z"/>
	<path class="st0" d="M153.9,98.1c-0.1,0.4-0.3,0.7-0.5,0.8c-0.4,0.4-0.9,0.5-1.4,0.5h-0.5v-0.9h0.3c0.7,0,1-0.2,1.2-0.9l0.5-1.4
		l-2.6-7.1h1.1l2,5.8l2-5.8h1.1L153.9,98.1z"/>
</g>
<g>
	<path class="st0" d="M237.7,296.9l-3.2-5.6l-2.2,2.6v2.9h-1.1v-10.4h1.1v6l4.9-6h1.4l-3.3,4l3.8,6.4H237.7z"/>
	<path class="st0" d="M241.2,293.6c0,1.6,0.7,2.5,2.1,2.5c0.8,0,1.3-0.2,1.9-0.8l0.7,0.6c-0.7,0.7-1.4,1.1-2.6,1.1
		c-1.9,0-3.1-1.1-3.1-3.7c0-2.3,1.1-3.7,3-3.7c1.9,0,3,1.3,3,3.5v0.5H241.2z M244.8,291.6c-0.3-0.7-0.9-1.1-1.7-1.1
		s-1.4,0.4-1.7,1.1c-0.2,0.4-0.2,0.6-0.2,1.2h3.8C245,292.2,245,292,244.8,291.6z"/>
	<path class="st0" d="M250,298.6c-0.1,0.4-0.3,0.7-0.5,0.8c-0.4,0.4-0.9,0.5-1.4,0.5h-0.5v-0.9h0.3c0.7,0,1-0.2,1.2-0.9l0.5-1.4
		l-2.6-7.1h1.1l2,5.8l2-5.8h1.1L250,298.6z"/>
	<path class="st0" d="M261.3,297c-1.6,0-2.6-0.4-3.6-1.4l0.8-0.8c0.9,0.9,1.7,1.1,2.8,1.1c1.5,0,2.5-0.7,2.5-1.9
		c0-0.5-0.2-1-0.5-1.3s-0.6-0.4-1.4-0.5l-1.2-0.2c-0.8-0.1-1.5-0.4-1.9-0.8c-0.5-0.5-0.8-1.1-0.8-1.9c0-1.8,1.3-2.9,3.3-2.9
		c1.3,0,2.2,0.3,3.1,1.1l-0.7,0.7c-0.6-0.6-1.3-0.9-2.4-0.9c-1.4,0-2.2,0.8-2.2,1.9c0,0.5,0.1,0.9,0.5,1.2s0.9,0.5,1.4,0.6l1.1,0.2
		c1,0.1,1.5,0.4,1.9,0.7c0.6,0.5,0.9,1.2,0.9,2.1C264.9,295.9,263.4,297,261.3,297z"/>
	<path class="st0" d="M273.9,296.9h-1l-1.9-5.6l-1.9,5.6h-1l-2.3-7.2h1.1l1.7,5.8l1.9-5.8h0.9l1.9,5.8l1.6-5.8h1.1L273.9,296.9z"/>
	<path class="st0" d="M277.5,287.6v-1.2h1.2v1.2H277.5z M277.6,296.9v-7.2h1.1v7.2H277.6z"/>
	<path class="st0" d="M283.3,296.9c-1.2,0-1.8-0.9-1.8-1.9v-4.4h-0.9v-0.8h0.9v-2.3h1.1v2.3h1.5v0.8h-1.5v4.4c0,0.7,0.3,1.1,1,1.1
		h0.6v0.9H283.3z"/>
	<path class="st0" d="M288.9,297c-1.8,0-3.2-1.2-3.2-3.7s1.4-3.7,3.2-3.7c1,0,1.6,0.3,2.4,1.1l-0.7,0.7c-0.5-0.6-1-0.8-1.7-0.8
		c-0.7,0-1.3,0.3-1.7,0.8c-0.3,0.5-0.5,1-0.5,1.9s0.1,1.5,0.5,1.9c0.4,0.5,1,0.8,1.7,0.8c0.7,0,1.1-0.2,1.7-0.8l0.7,0.7
		C290.5,296.7,289.9,297,288.9,297z"/>
	<path class="st0" d="M297.9,296.9v-4.5c0-1.3-0.7-1.9-1.8-1.9s-1.8,0.7-1.8,1.9v4.5h-1.1v-10.4h1.1v4c0.5-0.6,1.2-0.9,2-0.9
		c1.6,0,2.6,1,2.6,2.7v4.6H297.9z"/>
</g>
<g>
	<path class="st0" d="M609.4,296v-10.4h6.5v1h-5.4v3.7h4.6v1h-4.6v3.8h5.4v1H609.4z"/>
	<path class="st0" d="M627.3,296v-4.4c0-1.3-0.7-1.9-1.8-1.9c-1.1,0-1.8,0.7-1.8,1.8v4.6h-1.1v-4.4c0-1.3-0.7-1.9-1.8-1.9
		s-1.8,0.7-1.8,1.9v4.4H618v-7.2h1.1v0.8c0.5-0.6,1.2-0.9,2-0.9c1,0,1.8,0.4,2.2,1.2c0.6-0.8,1.4-1.2,2.4-1.2c0.8,0,1.4,0.2,1.9,0.7
		c0.5,0.5,0.8,1.2,0.8,2v4.6H627.3z"/>
	<path class="st0" d="M631.6,292.7c0,1.6,0.7,2.5,2.1,2.5c0.8,0,1.3-0.2,1.9-0.8l0.7,0.6c-0.7,0.7-1.4,1.1-2.6,1.1
		c-1.9,0-3.1-1.1-3.1-3.7c0-2.3,1.1-3.7,3-3.7c1.9,0,3,1.3,3,3.5v0.5H631.6z M635.2,290.7c-0.3-0.7-0.9-1.1-1.7-1.1
		s-1.4,0.4-1.7,1.1c-0.2,0.4-0.2,0.6-0.2,1.2h3.8C635.4,291.3,635.3,291.1,635.2,290.7z"/>
	<path class="st0" d="M642.7,290.2c-0.4-0.4-0.7-0.5-1.2-0.5c-1.1,0-1.7,0.8-1.7,1.9v4.4h-1.1v-7.2h1.1v0.9c0.4-0.6,1.2-1,2-1
		c0.7,0,1.2,0.2,1.7,0.7L642.7,290.2z"/>
	<path class="st0" d="M646.7,299.3c-1.1,0-1.7-0.3-2.4-1l0.7-0.7c0.5,0.5,0.9,0.7,1.7,0.7c1.4,0,2-1,2-2.2V295
		c-0.6,0.7-1.2,0.9-2,0.9c-0.7,0-1.4-0.3-1.7-0.6c-0.7-0.7-0.9-1.8-0.9-3s0.2-2.3,0.9-3c0.4-0.4,1-0.6,1.8-0.6c0.8,0,1.4,0.2,2,0.9
		v-0.8h1v7.4C649.7,298,648.6,299.3,646.7,299.3z M646.8,289.6c-1.6,0-1.8,1.3-1.8,2.7s0.2,2.7,1.8,2.7s1.8-1.3,1.8-2.7
		S648.4,289.6,646.8,289.6z"/>
	<path class="st0" d="M653,292.7c0,1.6,0.7,2.5,2.1,2.5c0.8,0,1.3-0.2,1.9-0.8l0.7,0.6c-0.7,0.7-1.4,1.1-2.6,1.1
		c-1.9,0-3.1-1.1-3.1-3.7c0-2.3,1.1-3.7,3-3.7c1.9,0,3,1.3,3,3.5v0.5H653z M656.6,290.7c-0.3-0.7-0.9-1.1-1.7-1.1s-1.4,0.4-1.7,1.1
		c-0.2,0.4-0.2,0.6-0.2,1.2h3.8C656.8,291.3,656.7,291.1,656.6,290.7z"/>
	<path class="st0" d="M664.7,296v-4.4c0-1.3-0.7-1.9-1.8-1.9s-1.8,0.7-1.8,1.9v4.4h-1.1v-7.2h1.1v0.8c0.5-0.6,1.2-0.9,2-0.9
		c0.8,0,1.4,0.2,1.8,0.7c0.5,0.5,0.7,1.2,0.7,2v4.6H664.7z"/>
	<path class="st0" d="M671.1,296.1c-1.8,0-3.2-1.2-3.2-3.7s1.4-3.7,3.2-3.7c1,0,1.6,0.3,2.4,1.1l-0.7,0.7c-0.5-0.6-1-0.8-1.7-0.8
		c-0.7,0-1.3,0.3-1.7,0.8c-0.3,0.5-0.5,1-0.5,1.9s0.1,1.5,0.5,1.9c0.4,0.5,1,0.8,1.7,0.8c0.7,0,1.1-0.2,1.7-0.8l0.7,0.7
		C672.7,295.8,672.1,296.1,671.1,296.1z"/>
	<path class="st0" d="M677.3,297.7c-0.1,0.4-0.3,0.7-0.5,0.8c-0.4,0.4-0.9,0.5-1.4,0.5h-0.5v-0.9h0.3c0.7,0,1-0.2,1.2-0.9l0.5-1.4
		l-2.6-7.1h1.1l2,5.8l2-5.8h1.1L677.3,297.7z"/>
	<path class="st0" d="M613.5,313.6h-4.1v-10.4h3.9c1.8,0,3.1,1,3.1,2.8c0,1.1-0.7,2-1.5,2.3c1,0.4,1.7,1.2,1.7,2.5
		C616.6,312.6,615.3,313.6,613.5,313.6z M613.3,304.1h-2.7v3.6h2.7c1.2,0,2.1-0.6,2.1-1.8S614.4,304.1,613.3,304.1z M613.4,308.8
		h-2.8v3.8h2.8c1.3,0,2.1-0.7,2.1-1.9S614.7,308.8,613.4,308.8z"/>
	<path class="st0" d="M623.6,313.6v-0.8c-0.5,0.6-1.2,0.9-2,0.9c-0.8,0-1.4-0.2-1.9-0.7c-0.5-0.5-0.7-1.2-0.7-2v-4.6h1.1v4.4
		c0,1.3,0.7,1.9,1.8,1.9s1.8-0.7,1.8-1.9v-4.4h1.1v7.2H623.6z"/>
	<path class="st0" d="M629.3,313.6c-1.2,0-1.8-0.9-1.8-1.9v-4.4h-0.9v-0.8h0.9v-2.3h1.1v2.3h1.5v0.8h-1.5v4.4c0,0.7,0.3,1.1,1,1.1
		h0.6v0.9H629.3z"/>
	<path class="st0" d="M634.2,313.6c-1.2,0-1.8-0.9-1.8-1.9v-4.4h-0.9v-0.8h0.9v-2.3h1.1v2.3h1.5v0.8h-1.5v4.4c0,0.7,0.3,1.1,1,1.1
		h0.6v0.9H634.2z"/>
	<path class="st0" d="M641.5,312.9c-0.5,0.5-1.2,0.8-2.1,0.8s-1.6-0.3-2.1-0.8c-0.7-0.7-0.9-1.8-0.9-2.9s0.1-2.1,0.9-2.9
		c0.5-0.5,1.2-0.8,2.1-0.8s1.6,0.3,2.1,0.8c0.7,0.7,0.9,1.8,0.9,2.9S642.2,312.1,641.5,312.9z M640.8,307.8
		c-0.3-0.3-0.8-0.5-1.3-0.5s-1,0.2-1.3,0.5c-0.5,0.5-0.6,1.4-0.6,2.2s0.1,1.7,0.6,2.2c0.3,0.3,0.8,0.5,1.3,0.5s1-0.2,1.3-0.5
		c0.5-0.5,0.6-1.4,0.6-2.2S641.3,308.3,640.8,307.8z"/>
	<path class="st0" d="M649.3,313.6v-4.4c0-1.3-0.7-1.9-1.8-1.9s-1.8,0.7-1.8,1.9v4.4h-1.1v-7.2h1.1v0.8c0.5-0.6,1.2-0.9,2-0.9
		c0.8,0,1.4,0.2,1.8,0.7c0.5,0.5,0.7,1.2,0.7,2v4.6H649.3z"/>
</g>
<g>
	<path class="st1" d="M271,330.5c2.4-1.3,4.6-3.8,5.8-6.5c1.2-2.8,1.4-5.9,0.6-8.7c-0.8-2.8-2.5-5.5-4.8-7.3
		c-2.3-1.8-5.3-2.8-8.3-2.8c-3,0-5.9,1-8.3,2.8c-2.3,1.8-4.1,4.4-4.8,7.3c-0.8,2.8-0.6,5.9,0.6,8.7c1.2,2.8,3.4,5.2,5.8,6.5"/>
	<path class="st1" d="M265.9,332.2c0.6-0.1,1.1-0.2,1.7-0.3"/>
	<path class="st1" d="M260.9,331.9c0.6,0.1,1.1,0.2,1.7,0.3"/>
	<rect x="257.6" y="329.6" class="st1" width="3.4" height="8.9"/>
	<rect x="267.6" y="329.6" class="st1" width="3.4" height="8.9"/>
	<rect x="262.6" y="329.6" class="st1" width="3.4" height="8.9"/>
</g>
<g>
	<polygon class="st1" points="571.7,299.9 571.7,303.3 575.6,303.3 575.6,311.3 576.9,311.3 576.9,318.1 576.9,318.1 577,318.1 
		577.2,318.1 593.6,318.1 593.6,311.3 595,311.3 595,303.3 598.8,303.3 598.8,299.9 595,299.9 595,296.9 596.8,296.9 596.8,295.2 
		595.9,295.2 595.9,289.6 596.8,289.6 598.2,277.7 598.2,277.6 598.2,276.9 598,276.2 597.6,275.5 597.2,274.9 596.6,274.5 
		595.9,274.1 595.2,273.9 594.5,273.9 594.5,273.9 576,273.9 576,273.9 575.3,273.9 574.6,274.1 573.9,274.5 573.3,274.9 
		572.9,275.5 572.5,276.2 572.3,276.9 572.3,277.6 572.3,277.7 573.7,289.6 574.6,289.6 574.6,295.2 573.7,295.2 573.7,296.9 
		575.6,296.9 575.6,299.9 	"/>
	<rect x="584" y="318.1" class="st1" width="3.4" height="8.9"/>
	<rect x="579.3" y="318.1" class="st1" width="3.4" height="8.9"/>
	<rect x="589.3" y="318.1" class="st1" width="3.4" height="8.9"/>
	<line class="st1" x1="574.6" y1="289.6" x2="595.9" y2="289.6"/>
	<line class="st1" x1="574.6" y1="295.2" x2="595.9" y2="295.2"/>
	<line class="st1" x1="575.6" y1="299.9" x2="595" y2="299.9"/>
	<line class="st1" x1="575.6" y1="303.3" x2="595" y2="303.3"/>
	<line class="st1" x1="576.9" y1="311.3" x2="593.6" y2="311.3"/>
	<line class="st1" x1="575.6" y1="296.9" x2="595" y2="296.9"/>
</g>
<polyline class="st2" points="655,360 591,360 591,327.1 "/>
<polyline class="st3" points="581,327.1 581,361.4 269.3,361.4 269.3,339.8 "/>
<polyline class="st3" points="259.2,338.6 259.2,366.5 655,366.5 "/>
<g>
	<line class="st1" x1="126.4" y1="322.8" x2="126.4" y2="317.5"/>
	<line class="st1" x1="139.7" y1="322.8" x2="126.4" y2="322.8"/>
	<path class="st1" d="M148,320.1c0,8.2-6.7,14.9-14.9,14.9s-14.9-6.7-14.9-14.9c0-8.2,6.7-14.9,14.9-14.9S148,311.9,148,320.1"/>
	<line class="st1" x1="138.7" y1="321.7" x2="127.5" y2="321.7"/>
	<line class="st1" x1="127.5" y1="321.7" x2="127.5" y2="318.5"/>
	<line class="st1" x1="127.5" y1="318.5" x2="138.7" y2="318.5"/>
	<line class="st1" x1="138.7" y1="318.5" x2="138.7" y2="321.7"/>
	<line class="st1" x1="126.4" y1="317.5" x2="139.7" y2="317.5"/>
	<line class="st1" x1="139.7" y1="317.5" x2="139.7" y2="322.8"/>
</g>
<g>
	<rect x="196.4" y="209.5" class="st1" width="8" height="9.6"/>
	<polyline class="st1" points="246.5,165.3 216.6,165.3 216.6,156.8 182.5,156.8 182.5,205.8 196.4,205.8 196.4,209.5 	"/>
	<polyline class="st1" points="182.5,205.8 182.5,233.5 297.6,233.5 297.6,156.8 297.6,233.5 182.5,233.5 182.5,222.9 196.4,222.9 
		182.5,222.9 	"/>
	<path class="st1" d="M189.7,229.8c0,1.6-1.3,2.9-2.9,2.9c-1.6,0-2.9-1.3-2.9-2.9c0-1.6,1.3-2.9,2.9-2.9
		C188.4,226.9,189.7,228.2,189.7,229.8"/>
	<path class="st1" d="M296.3,229.8c0,1.6-1.3,2.9-2.9,2.9c-1.6,0-2.9-1.3-2.9-2.9c0-1.6,1.3-2.9,2.9-2.9
		C295,226.9,296.3,228.2,296.3,229.8"/>
	<path class="st1" d="M188.4,229.8c0,0.9-0.7,1.6-1.6,1.6s-1.6-0.7-1.6-1.6s0.7-1.6,1.6-1.6S188.4,228.9,188.4,229.8"/>
	<path class="st1" d="M294.9,229.8c0,0.9-0.7,1.6-1.6,1.6c-0.9,0-1.6-0.7-1.6-1.6s0.7-1.6,1.6-1.6
		C294.2,228.2,294.9,228.9,294.9,229.8"/>
	<path class="st1" d="M188.4,160.5c0,0.9-0.7,1.6-1.6,1.6s-1.6-0.7-1.6-1.6c0-0.9,0.7-1.6,1.6-1.6S188.4,159.6,188.4,160.5"/>
	<line class="st1" x1="271" y1="165.3" x2="262.4" y2="165.3"/>
	<line class="st1" x1="354.2" y1="107.5" x2="122.8" y2="107.5"/>
	<path class="st1" d="M294.9,160.5c0,0.9-0.7,1.6-1.6,1.6c-0.9,0-1.6-0.7-1.6-1.6c0-0.9,0.7-1.6,1.6-1.6
		C294.2,158.9,294.9,159.6,294.9,160.5"/>
	<line class="st1" x1="354.2" y1="252.4" x2="354.2" y2="107.5"/>
	<line class="st1" x1="122.8" y1="252.4" x2="354.2" y2="252.4"/>
	<line class="st1" x1="111.2" y1="256.2" x2="111.2" y2="103.8"/>
	<path class="st1" d="M113.3,258.3c-1,0.1-2.2-1.1-2.1-2.1"/>
	<line class="st1" x1="363.7" y1="258.3" x2="113.3" y2="258.3"/>
	<line class="st1" x1="365.9" y1="103.8" x2="365.9" y2="256.2"/>
	<path class="st1" d="M363.7,101.7c1-0.1,2.2,1.1,2.1,2.1"/>
	<path class="st1" d="M111.2,103.8c-0.1-1,1.1-2.2,2.1-2.1"/>
	<line class="st1" x1="113.3" y1="101.7" x2="363.7" y2="101.7"/>
	<path class="st1" d="M365.9,256.2c0.1,1-1.1,2.2-2.1,2.1"/>
	<polyline class="st1" points="280.6,165.3 289.1,165.3 289.1,156.8 297.6,156.8 289.1,156.8 289.1,165.3 280.6,165.3 271,165.3 
		280.6,165.3 280.6,173.3 271,173.3 271,165.3 262.4,165.3 246.5,165.3 262.4,165.3 262.4,178.4 246.5,178.4 246.5,165.3 
		216.6,165.3 216.6,156.8 182.5,156.8 182.5,205.8 196.4,205.8 196.4,209.5 196.4,219.1 196.4,222.9 196.4,219.1 	"/>
	<path class="st1" d="M189.7,160.5c0,1.6-1.3,2.9-2.9,2.9c-1.6,0-2.9-1.3-2.9-2.9c0-1.6,1.3-2.9,2.9-2.9
		C188.4,157.6,189.7,158.9,189.7,160.5"/>
	<line class="st1" x1="122.8" y1="107.5" x2="122.8" y2="252.4"/>
</g>
<g>
	<path d="M247.8,189.8v-2.6h-2.7v2.6h-0.6v-5.7h0.6v2.6h2.7v-2.6h0.6v5.7H247.8z"/>
	<path d="M253.5,189.3c-0.3,0.3-0.8,0.5-1.4,0.5h-2v-5.7h2c0.6,0,1.1,0.2,1.4,0.5c0.6,0.6,0.6,1.5,0.6,2.3
		C254.1,187.7,254.1,188.7,253.5,189.3z M253.1,185.1c-0.3-0.3-0.7-0.4-1.1-0.4h-1.2v4.6h1.2c0.4,0,0.8-0.1,1.1-0.4
		c0.4-0.4,0.4-1.3,0.4-2C253.4,186.2,253.5,185.5,253.1,185.1z"/>
	<path d="M259.8,189.8v-4.3l-1.6,3.4h-0.5l-1.6-3.4v4.3h-0.6v-5.7h0.6l1.9,4l1.8-4h0.6v5.7H259.8z"/>
	<path d="M262,189.8v-5.7h0.6v5.7H262z"/>
</g>
<g>
	<path d="M210.3,211.2v5.1h-0.6v-5.1h-1.6v-0.5h3.9v0.5H210.3z"/>
	<path d="M215.5,215.9c-0.3,0.3-0.6,0.4-1.1,0.4c-0.5,0-0.9-0.2-1.1-0.4c-0.4-0.4-0.5-1-0.5-1.6c0-0.6,0.1-1.2,0.5-1.6
		c0.3-0.3,0.6-0.4,1.1-0.4c0.5,0,0.9,0.2,1.1,0.4c0.4,0.4,0.5,1,0.5,1.6C216,215,215.9,215.5,215.5,215.9z M215.1,213.2
		c-0.2-0.2-0.4-0.3-0.7-0.3s-0.5,0.1-0.7,0.3c-0.3,0.3-0.3,0.8-0.3,1.2c0,0.4,0,0.9,0.3,1.2c0.2,0.2,0.4,0.3,0.7,0.3
		s0.5-0.1,0.7-0.3c0.3-0.3,0.3-0.8,0.3-1.2C215.4,213.9,215.4,213.4,215.1,213.2z"/>
	<path d="M219.7,216.3v-0.4c-0.3,0.3-0.7,0.5-1.1,0.5c-0.4,0-0.8-0.1-1-0.4c-0.3-0.3-0.4-0.6-0.4-1.1v-2.5h0.6v2.4c0,0.7,0.4,1,1,1
		s1-0.4,1-1v-2.4h0.6v3.9H219.7z"/>
	<path d="M223.2,216.4c-1,0-1.7-0.7-1.7-2s0.8-2,1.7-2c0.5,0,0.9,0.1,1.3,0.6l-0.4,0.4c-0.3-0.3-0.5-0.4-0.9-0.4
		c-0.4,0-0.7,0.2-0.9,0.4c-0.2,0.3-0.3,0.6-0.3,1.1c0,0.5,0.1,0.8,0.3,1.1c0.2,0.3,0.5,0.4,0.9,0.4c0.4,0,0.6-0.1,0.9-0.4l0.4,0.4
		C224.1,216.2,223.8,216.4,223.2,216.4z"/>
	<path d="M228.1,216.3v-2.4c0-0.7-0.4-1-1-1s-1,0.4-1,1v2.4h-0.6v-5.7h0.6v2.2c0.3-0.3,0.7-0.5,1.1-0.5c0.9,0,1.4,0.6,1.4,1.5v2.5
		H228.1z"/>
</g>
<g>
	<path d="M268.9,179.5h-1.5v2.3h-0.6v-5.7h2.1c1,0,1.8,0.6,1.8,1.7S269.9,179.5,268.9,179.5z M268.9,176.7h-1.5v2.3h1.5
		c0.7,0,1.2-0.4,1.2-1.1C270.1,177.1,269.6,176.7,268.9,176.7z"/>
	<path d="M274.3,181.4c-0.3,0.3-0.6,0.4-1.1,0.4c-0.5,0-0.9-0.2-1.1-0.4c-0.4-0.4-0.5-1-0.5-1.6c0-0.6,0.1-1.2,0.5-1.6
		c0.3-0.3,0.6-0.4,1.1-0.4c0.5,0,0.9,0.2,1.1,0.4c0.4,0.4,0.5,1,0.5,1.6C274.7,180.5,274.7,181,274.3,181.4z M273.8,178.6
		c-0.2-0.2-0.4-0.3-0.7-0.3s-0.5,0.1-0.7,0.3c-0.3,0.3-0.3,0.8-0.3,1.2c0,0.4,0,0.9,0.3,1.2c0.2,0.2,0.4,0.3,0.7,0.3
		s0.5-0.1,0.7-0.3c0.3-0.3,0.3-0.8,0.3-1.2C274.2,179.4,274.1,178.9,273.8,178.6z"/>
	<path d="M279.7,181.8h-0.5l-1-3.1l-1,3.1h-0.5l-1.2-3.9h0.6l0.9,3.2l1-3.2h0.5l1,3.2l0.9-3.2h0.6L279.7,181.8z"/>
	<path d="M282.1,180c0,0.9,0.4,1.4,1.2,1.4c0.5,0,0.7-0.1,1-0.4l0.4,0.3c-0.4,0.4-0.8,0.6-1.4,0.6c-1,0-1.7-0.6-1.7-2
		c0-1.3,0.6-2,1.6-2c1,0,1.6,0.7,1.6,1.9v0.3H282.1z M284.1,178.9c-0.2-0.4-0.5-0.6-0.9-0.6c-0.4,0-0.8,0.2-0.9,0.6
		c-0.1,0.2-0.1,0.3-0.1,0.7h2.1C284.2,179.3,284.2,179.1,284.1,178.9z"/>
	<path d="M288.2,178.6c-0.2-0.2-0.4-0.3-0.7-0.3c-0.6,0-0.9,0.5-0.9,1.1v2.4H286v-3.9h0.6v0.5c0.2-0.3,0.6-0.5,1.1-0.5
		c0.4,0,0.7,0.1,0.9,0.4L288.2,178.6z"/>
</g>
<rect x="48" y="68.6" class="st4" width="384" height="314.3"/>
</svg>
