<?xml version="1.0" standalone="no"?>
 <!DOCTYPE svg PUBLIC "-//W3C//DTD SVG 1.1//EN" 
 "http://www.w3.org/Graphics/SVG/1.1/DTD/svg11.dtd"> 
<svg
  xmlns:svg="http://www.w3.org/2000/svg"
  xmlns="http://www.w3.org/2000/svg"
  xmlns:xlink="http://www.w3.org/1999/xlink"
  version="1.1"
  width="7.282180cm" height="3.622040cm" viewBox="0 0 28670 14260">
<title>SVG Picture created as ProbeConverter-brd.svg date 2022/01/25 14:20:44 </title>
  <desc>Picture generated by PCBNEW </desc>
<g style="fill:#000000; fill-opacity:1;stroke:#000000; stroke-opacity:1;
stroke-linecap:round; stroke-linejoin:round;"
 transform="translate(0 0) scale(1 1)">
</g>
<g style="fill:#000000; fill-opacity:0.0; 
stroke:#000000; stroke-width:-0.000393701; stroke-opacity:1; 
stroke-linecap:round; stroke-linejoin:round;">
<g >
</g>
<g style="fill:#000000; fill-opacity:1.0; 
stroke:#000000; stroke-width:0; stroke-opacity:1; 
stroke-linecap:round; stroke-linejoin:round;">
<circle cx="16463.4" cy="11759.8" r="590.551" /> 
</g>
<g style="fill:#000000; fill-opacity:1.0; 
stroke:#000000; stroke-width:39.3701; stroke-opacity:1; 
stroke-linecap:round; stroke-linejoin:round;">
</g>
<g style="fill:#000000; fill-opacity:1.0; 
stroke:#000000; stroke-width:0; stroke-opacity:1; 
stroke-linecap:round; stroke-linejoin:round;">
<path style="fill:#000000; fill-opacity:1.0; 
stroke:#000000; stroke-width:0; stroke-opacity:1; 
stroke-linecap:round; stroke-linejoin:round;fill-rule:evenodd;"
d="M 9872.89,12350.4
9872.89,11169.3
11054,11169.3
11054,12350.4
Z" /> 
<circle cx="14463.4" cy="11759.8" r="590.551" /> 
</g>
<g style="fill:#000000; fill-opacity:1.0; 
stroke:#000000; stroke-width:39.3701; stroke-opacity:1; 
stroke-linecap:round; stroke-linejoin:round;">
</g>
<g style="fill:#000000; fill-opacity:1.0; 
stroke:#000000; stroke-width:0; stroke-opacity:1; 
stroke-linecap:round; stroke-linejoin:round;">
<circle cx="12463.4" cy="11759.8" r="590.551" /> 
</g>
<g style="fill:#000000; fill-opacity:1.0; 
stroke:#000000; stroke-width:39.3701; stroke-opacity:1; 
stroke-linecap:round; stroke-linejoin:round;">
</g>
<g >
</g>
<g style="fill:#000000; fill-opacity:1.0; 
stroke:#000000; stroke-width:39.3701; stroke-opacity:1; 
stroke-linecap:round; stroke-linejoin:round;">
</g>
<g style="fill:#000000; fill-opacity:1.0; 
stroke:#000000; stroke-width:0; stroke-opacity:1; 
stroke-linecap:round; stroke-linejoin:round;">
<path style="fill:#000000; fill-opacity:1.0; 
stroke:#000000; stroke-width:0; stroke-opacity:1; 
stroke-linecap:round; stroke-linejoin:round;fill-rule:evenodd;"
d="M 21878.8,4828.74
22548.1,4828.74
22548.1,5616.14
21878.8,5616.14
Z" /> 
<path style="fill:#000000; fill-opacity:1.0; 
stroke:#000000; stroke-width:0; stroke-opacity:1; 
stroke-linecap:round; stroke-linejoin:round;fill-rule:evenodd;"
d="M 21878.8,6403.54
22548.1,6403.54
22548.1,7190.95
21878.8,7190.95
Z" /> 
</g>
<g >
</g>
<g style="fill:#000000; fill-opacity:1.0; 
stroke:#000000; stroke-width:0; stroke-opacity:1; 
stroke-linecap:round; stroke-linejoin:round;">
<path style="fill:#000000; fill-opacity:1.0; 
stroke:#000000; stroke-width:0; stroke-opacity:1; 
stroke-linecap:round; stroke-linejoin:round;fill-rule:evenodd;"
d="M 21556,9226.38
21870.9,9226.38
21870.9,9580.71
21556,9580.71
Z" /> 
<path style="fill:#000000; fill-opacity:1.0; 
stroke:#000000; stroke-width:0; stroke-opacity:1; 
stroke-linecap:round; stroke-linejoin:round;fill-rule:evenodd;"
d="M 21181.9,8438.98
21496.9,8438.98
21496.9,8793.31
21181.9,8793.31
Z" /> 
<path style="fill:#000000; fill-opacity:1.0; 
stroke:#000000; stroke-width:0; stroke-opacity:1; 
stroke-linecap:round; stroke-linejoin:round;fill-rule:evenodd;"
d="M 21930,8438.98
22244.9,8438.98
22244.9,8793.31
21930,8793.31
Z" /> 
</g>
<g >
</g>
<g style="fill:#000000; fill-opacity:1.0; 
stroke:#000000; stroke-width:0; stroke-opacity:1; 
stroke-linecap:round; stroke-linejoin:round;">
<circle cx="24213.4" cy="2759.84" r="590.551" /> 
</g>
<g style="fill:#000000; fill-opacity:1.0; 
stroke:#000000; stroke-width:39.3701; stroke-opacity:1; 
stroke-linecap:round; stroke-linejoin:round;">
</g>
<g style="fill:#000000; fill-opacity:1.0; 
stroke:#000000; stroke-width:0; stroke-opacity:1; 
stroke-linecap:round; stroke-linejoin:round;">
<circle cx="22213.4" cy="2759.84" r="590.551" /> 
</g>
<g style="fill:#000000; fill-opacity:1.0; 
stroke:#000000; stroke-width:39.3701; stroke-opacity:1; 
stroke-linecap:round; stroke-linejoin:round;">
</g>
<g style="fill:#000000; fill-opacity:1.0; 
stroke:#000000; stroke-width:0; stroke-opacity:1; 
stroke-linecap:round; stroke-linejoin:round;">
<path style="fill:#000000; fill-opacity:1.0; 
stroke:#000000; stroke-width:0; stroke-opacity:1; 
stroke-linecap:round; stroke-linejoin:round;fill-rule:evenodd;"
d="M 19622.9,3350.39
19622.9,2169.29
20804,2169.29
20804,3350.39
Z" /> 
</g>
<g >
</g>
<g style="fill:#000000; fill-opacity:1.0; 
stroke:#000000; stroke-width:0; stroke-opacity:1; 
stroke-linecap:round; stroke-linejoin:round;">
<path style="fill:#000000; fill-opacity:1.0; 
stroke:#000000; stroke-width:0; stroke-opacity:1; 
stroke-linecap:round; stroke-linejoin:round;fill-rule:evenodd;"
d="M 7378.8,4791.34
8048.09,4791.34
8048.09,5578.74
7378.8,5578.74
Z" /> 
<path style="fill:#000000; fill-opacity:1.0; 
stroke:#000000; stroke-width:0; stroke-opacity:1; 
stroke-linecap:round; stroke-linejoin:round;fill-rule:evenodd;"
d="M 7378.8,6366.14
8048.09,6366.14
8048.09,7153.54
7378.8,7153.54
Z" /> 
</g>
<g >
</g>
<g style="fill:#000000; fill-opacity:1.0; 
stroke:#000000; stroke-width:0; stroke-opacity:1; 
stroke-linecap:round; stroke-linejoin:round;">
<path style="fill:#000000; fill-opacity:1.0; 
stroke:#000000; stroke-width:0; stroke-opacity:1; 
stroke-linecap:round; stroke-linejoin:round;fill-rule:evenodd;"
d="M 7055.96,9226.38
7370.92,9226.38
7370.92,9580.71
7055.96,9580.71
Z" /> 
<path style="fill:#000000; fill-opacity:1.0; 
stroke:#000000; stroke-width:0; stroke-opacity:1; 
stroke-linecap:round; stroke-linejoin:round;fill-rule:evenodd;"
d="M 6681.95,8438.98
6996.91,8438.98
6996.91,8793.31
6681.95,8793.31
Z" /> 
<path style="fill:#000000; fill-opacity:1.0; 
stroke:#000000; stroke-width:0; stroke-opacity:1; 
stroke-linecap:round; stroke-linejoin:round;fill-rule:evenodd;"
d="M 7429.98,8438.98
7744.94,8438.98
7744.94,8793.31
7429.98,8793.31
Z" /> 
</g>
<g >
</g>
<g style="fill:#000000; fill-opacity:1.0; 
stroke:#000000; stroke-width:0; stroke-opacity:1; 
stroke-linecap:round; stroke-linejoin:round;">
<circle cx="9713.44" cy="2759.84" r="590.551" /> 
</g>
<g style="fill:#000000; fill-opacity:1.0; 
stroke:#000000; stroke-width:39.3701; stroke-opacity:1; 
stroke-linecap:round; stroke-linejoin:round;">
</g>
<g style="fill:#000000; fill-opacity:1.0; 
stroke:#000000; stroke-width:0; stroke-opacity:1; 
stroke-linecap:round; stroke-linejoin:round;">
<circle cx="7713.44" cy="2759.84" r="590.551" /> 
</g>
<g style="fill:#000000; fill-opacity:1.0; 
stroke:#000000; stroke-width:39.3701; stroke-opacity:1; 
stroke-linecap:round; stroke-linejoin:round;">
</g>
<g style="fill:#000000; fill-opacity:1.0; 
stroke:#000000; stroke-width:0; stroke-opacity:1; 
stroke-linecap:round; stroke-linejoin:round;">
<path style="fill:#000000; fill-opacity:1.0; 
stroke:#000000; stroke-width:0; stroke-opacity:1; 
stroke-linecap:round; stroke-linejoin:round;fill-rule:evenodd;"
d="M 5122.89,3350.39
5122.89,2169.29
6303.99,2169.29
6303.99,3350.39
Z" /> 
</g>
<g >
</g>
<g >
</g>
<g >
</g>
<g style="fill:#000000; fill-opacity:1.0; 
stroke:#000000; stroke-width:0; stroke-opacity:1; 
stroke-linecap:round; stroke-linejoin:round;">
<circle cx="16963.4" cy="2759.84" r="590.551" /> 
</g>
<g style="fill:#000000; fill-opacity:1.0; 
stroke:#000000; stroke-width:39.3701; stroke-opacity:1; 
stroke-linecap:round; stroke-linejoin:round;">
</g>
<g style="fill:#000000; fill-opacity:1.0; 
stroke:#000000; stroke-width:0; stroke-opacity:1; 
stroke-linecap:round; stroke-linejoin:round;">
<circle cx="14963.4" cy="2759.84" r="590.551" /> 
</g>
<g style="fill:#000000; fill-opacity:1.0; 
stroke:#000000; stroke-width:39.3701; stroke-opacity:1; 
stroke-linecap:round; stroke-linejoin:round;">
</g>
<g style="fill:#000000; fill-opacity:1.0; 
stroke:#000000; stroke-width:0; stroke-opacity:1; 
stroke-linecap:round; stroke-linejoin:round;">
<path style="fill:#000000; fill-opacity:1.0; 
stroke:#000000; stroke-width:0; stroke-opacity:1; 
stroke-linecap:round; stroke-linejoin:round;fill-rule:evenodd;"
d="M 12372.9,3350.39
12372.9,2169.29
13554,2169.29
13554,3350.39
Z" /> 
</g>
<g >
</g>
<g style="fill:#000000; fill-opacity:1.0; 
stroke:#000000; stroke-width:0; stroke-opacity:1; 
stroke-linecap:round; stroke-linejoin:round;">
<path style="fill:#000000; fill-opacity:1.0; 
stroke:#000000; stroke-width:0; stroke-opacity:1; 
stroke-linecap:round; stroke-linejoin:round;fill-rule:evenodd;"
d="M 14628.8,4828.74
15298.1,4828.74
15298.1,5616.14
14628.8,5616.14
Z" /> 
<path style="fill:#000000; fill-opacity:1.0; 
stroke:#000000; stroke-width:0; stroke-opacity:1; 
stroke-linecap:round; stroke-linejoin:round;fill-rule:evenodd;"
d="M 14628.8,6403.54
15298.1,6403.54
15298.1,7190.95
14628.8,7190.95
Z" /> 
</g>
<g >
</g>
<g style="fill:#000000; fill-opacity:1.0; 
stroke:#000000; stroke-width:0; stroke-opacity:1; 
stroke-linecap:round; stroke-linejoin:round;">
<path style="fill:#000000; fill-opacity:1.0; 
stroke:#000000; stroke-width:0; stroke-opacity:1; 
stroke-linecap:round; stroke-linejoin:round;fill-rule:evenodd;"
d="M 14306,9476.38
14620.9,9476.38
14620.9,9830.71
14306,9830.71
Z" /> 
<path style="fill:#000000; fill-opacity:1.0; 
stroke:#000000; stroke-width:0; stroke-opacity:1; 
stroke-linecap:round; stroke-linejoin:round;fill-rule:evenodd;"
d="M 13931.9,8688.98
14246.9,8688.98
14246.9,9043.31
13931.9,9043.31
Z" /> 
<path style="fill:#000000; fill-opacity:1.0; 
stroke:#000000; stroke-width:0; stroke-opacity:1; 
stroke-linecap:round; stroke-linejoin:round;fill-rule:evenodd;"
d="M 14680,8688.98
14994.9,8688.98
14994.9,9043.31
14680,9043.31
Z" /> 
</g>
<g >
</g>
<g style="fill:#000000; fill-opacity:1.0; 
stroke:#000000; stroke-width:0; stroke-opacity:1; 
stroke-linecap:round; stroke-linejoin:round;">
<circle cx="7713.44" cy="11759.8" r="590.551" /> 
</g>
<g style="fill:#000000; fill-opacity:1.0; 
stroke:#000000; stroke-width:39.3701; stroke-opacity:1; 
stroke-linecap:round; stroke-linejoin:round;">
</g>
<g style="fill:#000000; fill-opacity:1.0; 
stroke:#000000; stroke-width:0; stroke-opacity:1; 
stroke-linecap:round; stroke-linejoin:round;">
<path style="fill:#000000; fill-opacity:1.0; 
stroke:#000000; stroke-width:0; stroke-opacity:1; 
stroke-linecap:round; stroke-linejoin:round;fill-rule:evenodd;"
d="M 5122.89,12350.4
5122.89,11169.3
6303.99,11169.3
6303.99,12350.4
Z" /> 
</g>
<g >
</g>
<g >
</g>
<g style="fill:#000000; fill-opacity:1.0; 
stroke:#000000; stroke-width:0; stroke-opacity:1; 
stroke-linecap:round; stroke-linejoin:round;">
</g>
<g style="fill:#000000; fill-opacity:1.0; 
stroke:#000000; stroke-width:314.961; stroke-opacity:1; 
stroke-linecap:round; stroke-linejoin:round;">
</g>
<g style="fill:#000000; fill-opacity:0.0; 
stroke:#000000; stroke-width:314.961; stroke-opacity:1; 
stroke-linecap:round; stroke-linejoin:round;">
<path d="M5713 2759
L5713 2009
" />
<path d="M5713 2009
L6463 1259
" />
<path d="M6463 1259
L12713 1259
" />
<path d="M12963 1509
L12963 2759
" />
<path d="M5713 11759
L5713 2759
" />
<path d="M20213 1509
L20213 2759
" />
<path d="M19963 1259
L20213 1509
" />
<path d="M12963 1509
L12963 1259
" />
<path d="M12963 1259
L19963 1259
" />
<path d="M12713 1259
L12963 1259
" />
</g>
<g style="fill:#000000; fill-opacity:0.0; 
stroke:#000000; stroke-width:157.48; stroke-opacity:1; 
stroke-linecap:round; stroke-linejoin:round;">
<path d="M14963 5222
L14963 2759
" />
<path d="M14837 6923
L14963 6797
" />
</g>
<g style="fill:#000000; fill-opacity:0.0; 
stroke:#000000; stroke-width:314.961; stroke-opacity:1; 
stroke-linecap:round; stroke-linejoin:round;">
<path d="M14837 8866
L14837 6923
" />
<path d="M7713 5185
L7713 2759
" />
<path d="M14463 11009
L14463 9653
" />
<path d="M14463 11009
L14463 11759
" />
<path d="M11857 9403
L7213 9403
" />
<path d="M12463 10009
L11857 9403
" />
<path d="M12463 11759
L12463 10009
" />
</g>
<g style="fill:#000000; fill-opacity:0.0; 
stroke:#000000; stroke-width:157.48; stroke-opacity:1; 
stroke-linecap:round; stroke-linejoin:round;">
<path d="M7587 6885
L7713 6759
" />
</g>
<g style="fill:#000000; fill-opacity:0.0; 
stroke:#000000; stroke-width:314.961; stroke-opacity:1; 
stroke-linecap:round; stroke-linejoin:round;">
<path d="M7587 8616
L7587 6885
" />
<path d="M22213 5222
L22213 2759
" />
<path d="M21713 9403
L21713 10759
" />
<path d="M21713 10759
L19463 13009
" />
<path d="M19463 13009
L10963 13009
" />
<path d="M10463 12509
L10463 11759
" />
<path d="M10963 13009
L10463 12509
" />
</g>
<g style="fill:#000000; fill-opacity:0.0; 
stroke:#000000; stroke-width:157.48; stroke-opacity:1; 
stroke-linecap:round; stroke-linejoin:round;">
<path d="M22213 8490
L22087 8616
" />
</g>
<g style="fill:#000000; fill-opacity:0.0; 
stroke:#000000; stroke-width:314.961; stroke-opacity:1; 
stroke-linecap:round; stroke-linejoin:round;">
<path d="M22213 6797
L22213 8490
" />
</g>
<g >
</g>
<g style="fill:#000000; fill-opacity:0.0; 
stroke:#000000; stroke-width:314.961; stroke-opacity:1; 
stroke-linecap:round; stroke-linejoin:round;">
<g >
</g>
<g style="fill:#000000; fill-opacity:1.0; 
stroke:#000000; stroke-width:100; stroke-opacity:1; 
stroke-linecap:round; stroke-linejoin:round;">
<path style="fill:#000000; fill-opacity:1.0; 
stroke:#000000; stroke-width:100; stroke-opacity:1; 
stroke-linecap:round; stroke-linejoin:round;fill-rule:evenodd;"
d="M 26507.7,1568.84
26663.4,1786.89
26663.4,12245.7
25736.2,13752.5
10431.8,13918.8
3068.07,13959.3
2162.46,12691.4
2013.44,12463.2
2013.44,7173.18
2833.52,7173.18
2833.52,7346.51
2867.34,7516.51
2933.67,7676.64
3029.96,7820.76
3152.53,7943.32
3296.64,8039.62
3456.78,8105.95
3626.78,8139.76
3800.11,8139.76
3970.11,8105.95
4130.24,8039.62
4274.36,7943.32
4396.92,7820.76
4493.22,7676.64
4559.55,7516.51
4593.36,7346.51
4593.36,7173.18
4559.55,7003.18
4493.22,6843.04
4396.92,6698.93
4274.36,6576.36
4130.24,6480.07
3970.11,6413.74
3800.11,6379.92
3626.78,6379.92
3456.78,6413.74
3296.64,6480.07
3152.53,6576.36
3029.96,6698.93
2933.67,6843.04
2867.34,7003.18
2833.52,7173.18
2013.44,7173.18
2013.44,2496.33
2289.88,2169.29
4871.68,2169.29
4871.68,3350.39
4876.51,3399.4
4890.8,3446.53
4914.02,3489.96
4945.26,3528.03
4983.33,3559.27
5026.76,3582.48
5073.88,3596.78
5122.89,3601.6
5305.96,3601.6
5305.96,10918.1
5122.89,10918.1
5073.88,10922.9
5026.76,10937.2
4983.33,10960.4
4945.26,10991.7
4914.02,11029.7
4890.8,11073.2
4876.51,11120.3
4871.68,11169.3
4871.68,12350.4
4876.51,12399.4
4890.8,12446.5
4914.02,12490
4945.26,12528
4983.33,12559.3
5026.76,12582.5
5073.88,12596.8
5122.89,12601.6
6303.99,12601.6
6353,12596.8
6400.13,12582.5
6443.56,12559.3
6481.63,12528
6512.87,12490
6536.08,12446.5
6550.38,12399.4
6555.2,12350.4
6555.2,12347.1
7196.89,12347.1
7258.31,12471.3
7405.86,12546.5
7565.23,12591.4
7730.3,12604.3
7894.72,12584.8
8052.18,12533.6
8168.58,12471.3
8230,12347.1
7713.44,11830.6
7196.89,12347.1
6555.2,12347.1
6555.2,11776.7
6868.99,11776.7
6888.51,11941.1
6939.72,12098.6
7001.94,12215
7126.18,12276.4
7642.73,11759.8
7784.15,11759.8
8300.71,12276.4
8424.94,12215
8500.06,12067.4
8544.96,11908.1
8557.89,11743
8538.38,11578.6
8487.16,11421.1
8424.94,11304.7
8300.71,11243.3
7784.15,11759.8
7642.73,11759.8
7126.18,11243.3
7001.94,11304.7
6926.82,11452.3
6881.93,11611.6
6868.99,11776.7
6555.2,11776.7
6555.2,11172.6
7196.89,11172.6
7713.44,11689.1
8230,11172.6
8228.37,11169.3
9621.68,11169.3
9621.68,12350.4
9626.51,12399.4
9640.8,12446.5
9664.02,12490
9695.26,12528
9733.33,12559.3
9776.76,12582.5
9823.88,12596.8
9872.89,12601.6
10065.5,12601.6
10085.2,12666.5
10123,12737.3
10173.9,12799.4
10189.5,12812.1
10661.2,13283.8
10673.9,13299.4
10689.5,13312.1
10736,13350.3
10773.8,13370.5
10806.8,13388.1
10883.6,13411.4
10943.4,13417.3
10943.4,13417.3
10963.4,13419.3
10983.5,13417.3
19443.4,13417.3
19463.4,13419.3
19483.5,13417.3
19483.5,13417.3
19543.3,13411.4
19620.1,13388.1
19690.9,13350.3
19753,13299.4
19765.7,13283.8
21987.4,11062.1
22003,11049.4
22031.2,11015
22053.9,10987.3
22091.7,10916.5
22097.1,10898.7
22115,10839.7
22120.9,10779.9
22120.9,10779.9
22122.9,10759.8
22120.9,10739.8
22120.9,9592.99
22122.1,9580.71
22122.1,9226.38
22117.3,9177.37
22103,9130.24
22079.8,9086.81
22048.6,9048.75
22043.4,9044.52
22244.9,9044.52
22293.9,9039.69
22341.1,9025.39
22384.5,9002.18
22422.6,8970.94
22453.8,8932.87
22477,8889.44
22491.3,8842.32
22496.1,8793.31
22496.1,8785.28
22503,8779.68
22553.9,8717.64
22591.7,8646.85
22615,8570.04
22620.9,8510.17
22620.9,7430.1
22644.2,7423.03
22687.7,7399.82
22725.7,7368.58
22757,7330.51
22780.2,7287.08
22794.5,7239.95
22799.3,7190.95
22799.3,7173.18
24083.5,7173.18
24083.5,7346.51
24117.3,7516.51
24183.7,7676.64
24280,7820.76
24402.5,7943.32
24546.6,8039.62
24706.8,8105.95
24876.8,8139.76
25050.1,8139.76
25220.1,8105.95
25380.2,8039.62
25524.4,7943.32
25646.9,7820.76
25743.2,7676.64
25809.5,7516.51
25843.4,7346.51
25843.4,7173.18
25809.5,7003.18
25743.2,6843.04
25646.9,6698.93
25524.4,6576.36
25380.2,6480.07
25220.1,6413.74
25050.1,6379.92
24876.8,6379.92
24706.8,6413.74
24546.6,6480.07
24402.5,6576.36
24280,6698.93
24183.7,6843.04
24117.3,7003.18
24083.5,7173.18
22799.3,7173.18
22799.3,6403.54
22794.5,6354.54
22780.2,6307.41
22757,6263.98
22725.7,6225.91
22687.7,6194.67
22644.2,6171.46
22597.1,6157.16
22548.1,6152.33
21878.8,6152.33
21829.8,6157.16
21782.7,6171.46
21739.2,6194.67
21701.2,6225.91
21669.9,6263.98
21646.7,6307.41
21632.4,6354.54
21627.6,6403.54
21627.6,7190.95
21632.4,7239.95
21646.7,7287.08
21669.9,7330.51
21701.2,7368.58
21739.2,7399.82
21782.7,7423.03
21806,7430.1
21806,8221.79
21790.4,8230.1
21752.3,8261.34
21721.1,8299.41
21713.4,8313.75
21705.8,8299.41
21674.5,8261.34
21636.5,8230.1
21593,8206.89
21545.9,8192.59
21496.9,8187.77
21451.9,8188.98
21389.4,8251.48
21389.4,8566.14
21397.3,8566.14
21397.3,8666.14
21389.4,8666.14
21389.4,8980.81
21422.7,9014.12
21416.4,9017.51
21378.3,9048.75
21347.1,9086.81
21323.9,9130.24
21309.6,9177.37
21304.8,9226.38
21304.8,9580.71
21306,9592.99
21306,10591.1
19294.7,12602.4
16496.6,12602.4
16644.7,12584.8
16802.2,12533.6
16918.6,12471.3
16980,12347.1
16463.4,11830.6
15946.9,12347.1
16008.3,12471.3
16155.9,12546.5
16315.2,12591.4
16455.7,12602.4
11132.2,12602.4
11121.1,12591.3
11150.1,12582.5
11193.6,12559.3
11231.6,12528
11262.9,12490
11286.1,12446.5
11300.4,12399.4
11305.2,12350.4
11305.2,11169.3
11300.4,11120.3
11286.1,11073.2
11262.9,11029.7
11231.6,10991.7
11193.6,10960.4
11150.1,10937.2
11103,10922.9
11054,10918.1
9872.89,10918.1
9823.88,10922.9
9776.76,10937.2
9733.33,10960.4
9695.26,10991.7
9664.02,11029.7
9640.8,11073.2
9626.51,11120.3
9621.68,11169.3
8228.37,11169.3
8168.58,11048.3
8021.02,10973.2
7861.65,10928.3
7696.58,10915.4
7532.16,10934.9
7374.71,10986.1
7258.31,11048.3
7196.89,11172.6
6555.2,11172.6
6555.2,11169.3
6550.38,11120.3
6536.08,11073.2
6512.87,11029.7
6481.63,10991.7
6443.56,10960.4
6400.13,10937.2
6353,10922.9
6303.99,10918.1
6120.92,10918.1
6120.92,9403.54
6803.99,9403.54
6804.75,9411.28
6804.75,9580.71
6809.58,9629.72
6823.87,9676.84
6847.09,9720.27
6878.33,9758.34
6916.4,9789.58
6959.83,9812.8
7006.95,9827.09
7055.96,9831.92
7370.92,9831.92
7419.93,9827.09
7467.06,9812.8
7470.37,9811.02
11688.4,9811.02
12056,10178.6
12056,11021.2
11927.6,11106.9
11810.5,11224
11718.6,11361.7
11655.2,11514.7
11622.9,11677.1
11622.9,11842.6
11655.2,12005
11718.6,12158
11810.5,12295.7
11927.6,12412.7
12065.3,12504.7
12218.3,12568.1
12380.7,12600.4
12546.2,12600.4
12708.6,12568.1
12861.6,12504.7
12999.3,12412.7
13116.3,12295.7
13208.3,12158
13271.7,12005
13304,11842.6
13304,11677.1
13622.9,11677.1
13622.9,11842.6
13655.2,12005
13718.6,12158
13810.5,12295.7
13927.6,12412.7
14065.3,12504.7
14218.3,12568.1
14380.7,12600.4
14546.2,12600.4
14708.6,12568.1
14861.6,12504.7
14999.3,12412.7
15116.3,12295.7
15208.3,12158
15271.7,12005
15304,11842.6
15304,11776.7
15619,11776.7
15638.5,11941.1
15689.7,12098.6
15751.9,12215
15876.2,12276.4
16392.7,11759.8
16534.2,11759.8
17050.7,12276.4
17174.9,12215
17250.1,12067.4
17295,11908.1
17307.9,11743
17288.4,11578.6
17237.2,11421.1
17174.9,11304.7
17050.7,11243.3
16534.2,11759.8
16392.7,11759.8
15876.2,11243.3
15751.9,11304.7
15676.8,11452.3
15631.9,11611.6
15619,11776.7
15304,11776.7
15304,11677.1
15271.7,11514.7
15208.3,11361.7
15116.3,11224
15064.9,11172.6
15946.9,11172.6
16463.4,11689.1
16980,11172.6
16918.6,11048.3
16771,10973.2
16611.7,10928.3
16446.6,10915.4
16282.2,10934.9
16124.7,10986.1
16008.3,11048.3
15946.9,11172.6
15064.9,11172.6
14999.3,11106.9
14870.9,11021.2
14870.9,9842.99
14872.1,9830.71
14872.1,9476.38
14867.3,9427.37
14853,9380.24
14829.8,9336.81
14798.6,9298.75
14793.4,9294.52
14994.9,9294.52
15043.9,9289.69
15091.1,9275.39
15134.5,9252.18
15172.6,9220.94
15203.8,9182.87
15227,9139.44
15241.3,9092.32
15246.1,9043.31
15246.1,8793.31
20930.7,8793.31
20935.6,8842.32
20949.9,8889.44
20973.1,8932.87
21004.3,8970.94
21042.4,9002.18
21085.8,9025.39
21132.9,9039.69
21181.9,9044.52
21226.9,9043.31
21289.4,8980.81
21289.4,8666.14
20994.4,8666.14
20931.9,8728.64
20930.7,8793.31
15246.1,8793.31
15246.1,8688.98
15244.9,8676.7
15244.9,8438.98
20930.7,8438.98
20931.9,8503.64
20994.4,8566.14
21289.4,8566.14
21289.4,8251.48
21226.9,8188.98
21181.9,8187.77
21132.9,8192.59
21085.8,8206.89
21042.4,8230.1
21004.3,8261.34
20973.1,8299.41
20949.9,8342.84
20935.6,8389.97
20930.7,8438.98
15244.9,8438.98
15244.9,7442.15
15298.1,7442.15
15347.1,7437.33
15394.2,7423.03
15437.7,7399.82
15475.7,7368.58
15507,7330.51
15530.2,7287.08
15544.5,7239.95
15549.3,7190.95
15549.3,6403.54
15544.5,6354.54
15530.2,6307.41
15507,6263.98
15475.7,6225.91
15437.7,6194.67
15394.2,6171.46
15347.1,6157.16
15298.1,6152.33
14628.8,6152.33
14579.8,6157.16
14532.7,6171.46
14489.2,6194.67
14451.2,6225.91
14419.9,6263.98
14396.7,6307.41
14382.4,6354.54
14377.6,6403.54
14377.6,7190.95
14382.4,7239.95
14396.7,7287.08
14419.9,7330.51
14430,7342.76
14430,8517.97
14424.5,8511.34
14386.5,8480.1
14343,8456.89
14295.9,8442.59
14246.9,8437.77
14201.9,8438.98
14139.4,8501.48
14139.4,8816.14
14147.3,8816.14
14147.3,8916.14
14139.4,8916.14
14139.4,9230.81
14172.7,9264.12
14166.4,9267.51
14128.3,9298.75
14097.1,9336.81
14073.9,9380.24
14059.6,9427.37
14054.8,9476.38
14054.8,9830.71
14056,9842.99
14056,10989.8
14056,11021.2
13927.6,11106.9
13810.5,11224
13718.6,11361.7
13655.2,11514.7
13622.9,11677.1
13304,11677.1
13271.7,11514.7
13208.3,11361.7
13116.3,11224
12999.3,11106.9
12870.9,11021.2
12870.9,10029.9
12872.9,10009.8
12869,9970.27
12865,9929.96
12841.7,9853.15
12807.7,9789.58
12803.9,9782.36
12765.7,9735.86
12753,9720.32
12737.4,9707.56
12159.4,9129.57
12146.7,9114.02
12084.6,9063.1
12047.6,9043.31
13680.7,9043.31
13685.6,9092.32
13699.9,9139.44
13723.1,9182.87
13754.3,9220.94
13792.4,9252.18
13835.8,9275.39
13882.9,9289.69
13931.9,9294.52
13976.9,9293.31
14039.4,9230.81
14039.4,8916.14
13744.4,8916.14
13681.9,8978.64
13680.7,9043.31
12047.6,9043.31
12013.8,9025.26
11937,9001.96
11877.2,8996.06
11877.2,8996.06
11857.1,8994.09
11837.1,8996.06
7891.96,8996.06
7922.57,8970.94
7953.81,8932.87
7977.03,8889.44
7991.32,8842.32
7996.15,8793.31
7996.15,8688.98
13680.7,8688.98
13681.9,8753.64
13744.4,8816.14
14039.4,8816.14
14039.4,8501.48
13976.9,8438.98
13931.9,8437.77
13882.9,8442.59
13835.8,8456.89
13792.4,8480.1
13754.3,8511.34
13723.1,8549.41
13699.9,8592.84
13685.6,8639.97
13680.7,8688.98
7996.15,8688.98
7996.15,8438.98
7994.94,8426.7
7994.94,7404.75
8048.09,7404.75
8097.1,7399.93
8144.22,7385.63
8187.65,7362.42
8225.72,7331.18
8256.96,7293.11
8280.18,7249.68
8294.47,7202.55
8299.3,7153.54
8299.3,6366.14
8294.47,6317.13
8280.18,6270.01
8256.96,6226.58
8225.72,6188.51
8187.65,6157.27
8144.22,6134.05
8097.1,6119.76
8048.09,6114.93
7378.8,6114.93
7329.79,6119.76
7282.66,6134.05
7239.23,6157.27
7201.16,6188.51
7169.92,6226.58
7146.71,6270.01
7132.41,6317.13
7127.59,6366.14
7127.59,7153.54
7132.41,7202.55
7146.71,7249.68
7169.92,7293.11
7179.98,7305.36
7179.98,8267.97
7174.54,8261.34
7136.47,8230.1
7093.04,8206.89
7045.92,8192.59
6996.91,8187.77
6951.93,8188.98
6889.43,8251.48
6889.43,8566.14
6897.3,8566.14
6897.3,8666.14
6889.43,8666.14
6889.43,8980.81
6922.74,9014.12
6916.4,9017.51
6878.33,9048.75
6847.09,9086.81
6823.87,9130.24
6809.58,9177.37
6804.75,9226.38
6804.75,9395.81
6803.99,9403.54
6120.92,9403.54
6120.92,8793.31
6430.74,8793.31
6435.56,8842.32
6449.86,8889.44
6473.07,8932.87
6504.31,8970.94
6542.38,9002.18
6585.81,9025.39
6632.94,9039.69
6681.95,9044.52
6726.93,9043.31
6789.43,8980.81
6789.43,8666.14
6494.45,8666.14
6431.95,8728.64
6430.74,8793.31
6120.92,8793.31
6120.92,8438.98
6430.74,8438.98
6431.95,8503.64
6494.45,8566.14
6789.43,8566.14
6789.43,8251.48
6726.93,8188.98
6681.95,8187.77
6632.94,8192.59
6585.81,8206.89
6542.38,8230.1
6504.31,8261.34
6473.07,8299.41
6449.86,8342.84
6435.56,8389.97
6430.74,8438.98
6120.92,8438.98
6120.92,3601.6
6303.99,3601.6
6353,3596.78
6400.13,3582.48
6443.56,3559.27
6481.63,3528.03
6512.87,3489.96
6536.08,3446.53
6550.38,3399.4
6555.2,3350.39
6555.2,2677.06
6872.89,2677.06
6872.89,2842.63
6905.19,3005.02
6968.56,3157.99
7060.54,3295.66
7177.62,3412.74
7305.96,3498.5
7305.96,4552.18
7282.66,4559.25
7239.23,4582.47
7201.16,4613.71
7169.92,4651.77
7146.71,4695.21
7132.41,4742.33
7127.59,4791.34
7127.59,5578.74
7132.41,5627.75
7146.71,5674.87
7169.92,5718.31
7201.16,5756.37
7239.23,5787.61
7282.66,5810.83
7329.79,5825.12
7378.8,5829.95
8048.09,5829.95
8097.1,5825.12
8144.22,5810.83
8187.65,5787.61
8225.72,5756.37
8256.96,5718.31
8280.18,5674.87
8294.47,5627.75
8299.3,5578.74
8299.3,4791.34
8294.47,4742.33
8280.18,4695.21
8256.96,4651.77
8225.72,4613.71
8187.65,4582.47
8144.22,4559.25
8120.92,4552.18
8120.92,3498.5
8249.26,3412.74
8314.9,3347.11
9196.89,3347.11
9258.31,3471.34
9405.86,3546.46
9565.23,3591.36
9730.3,3604.29
9894.72,3584.78
10052.2,3533.56
10168.6,3471.34
10230,3347.11
9713.44,2830.55
9196.89,3347.11
8314.9,3347.11
8366.34,3295.66
8458.33,3157.99
8521.69,3005.02
8553.99,2842.63
8553.99,2776.7
8868.99,2776.7
8888.51,2941.12
8939.72,3098.58
9001.94,3214.98
9126.18,3276.4
9642.73,2759.84
9784.15,2759.84
10300.7,3276.4
10424.9,3214.98
10500.1,3067.42
10545,2908.05
10557.9,2742.98
10538.4,2578.56
10487.2,2421.11
10424.9,2304.71
10300.7,2243.29
9784.15,2759.84
9642.73,2759.84
9126.18,2243.29
9001.94,2304.71
8926.82,2452.26
8881.93,2611.63
8868.99,2776.7
8553.99,2776.7
8553.99,2677.06
8521.69,2514.66
8458.33,2361.69
8366.34,2224.02
8314.9,2172.58
9196.89,2172.58
9713.44,2689.13
10230,2172.58
10168.6,2048.34
10021,1973.22
9861.65,1928.33
9696.58,1915.39
9532.16,1934.91
9374.71,1986.13
9258.31,2048.34
9196.89,2172.58
8314.9,2172.58
8249.26,2106.94
8111.59,2014.96
7958.62,1951.59
7796.23,1919.29
7630.66,1919.29
7468.26,1951.59
7315.29,2014.96
7177.62,2106.94
7060.54,2224.02
6968.56,2361.69
6905.19,2514.66
6872.89,2677.06
6555.2,2677.06
6555.2,2169.29
6550.38,2120.28
6536.08,2073.16
6512.87,2029.73
6481.63,1991.66
6443.56,1960.42
6400.13,1937.2
6371.14,1928.41
6632.23,1667.32
12556,1667.32
12556,1918.08
12372.9,1918.08
12323.9,1922.91
12276.8,1937.2
12233.3,1960.42
12195.3,1991.66
12164,2029.73
12140.8,2073.16
12126.5,2120.28
12121.7,2169.29
12121.7,3350.39
12126.5,3399.4
12140.8,3446.53
12164,3489.96
12195.3,3528.03
12233.3,3559.27
12276.8,3582.48
12323.9,3596.78
12372.9,3601.6
13554,3601.6
13603,3596.78
13650.1,3582.48
13693.6,3559.27
13731.6,3528.03
13762.9,3489.96
13786.1,3446.53
13800.4,3399.4
13805.2,3350.39
13805.2,2677.06
14122.9,2677.06
14122.9,2842.63
14155.2,3005.02
14218.6,3157.99
14310.5,3295.66
14427.6,3412.74
14565.3,3504.73
14634.7,3533.48
14634.7,4577.53
14628.8,4577.53
14579.8,4582.36
14532.7,4596.65
14489.2,4619.87
14451.2,4651.11
14419.9,4689.18
14396.7,4732.61
14382.4,4779.73
14377.6,4828.74
14377.6,5616.14
14382.4,5665.15
14396.7,5712.28
14419.9,5755.71
14451.2,5793.77
14489.2,5825.01
14532.7,5848.23
14579.8,5862.52
14628.8,5867.35
15298.1,5867.35
15347.1,5862.52
15394.2,5848.23
15437.7,5825.01
15475.7,5793.77
15507,5755.71
15530.2,5712.28
15544.5,5665.15
15549.3,5616.14
15549.3,4828.74
15544.5,4779.73
15530.2,4732.61
15507,4689.18
15475.7,4651.11
15437.7,4619.87
15394.2,4596.65
15347.1,4582.36
15298.1,4577.53
15292.2,4577.53
15292.2,3533.48
15361.6,3504.73
15499.3,3412.74
15564.9,3347.11
16446.9,3347.11
16508.3,3471.34
16655.9,3546.46
16815.2,3591.36
16980.3,3604.29
17144.7,3584.78
17302.2,3533.56
17418.6,3471.34
17480,3347.11
16963.4,2830.55
16446.9,3347.11
15564.9,3347.11
15616.3,3295.66
15708.3,3157.99
15771.7,3005.02
15804,2842.63
15804,2776.7
16119,2776.7
16138.5,2941.12
16189.7,3098.58
16251.9,3214.98
16376.2,3276.4
16892.7,2759.84
17034.2,2759.84
17550.7,3276.4
17674.9,3214.98
17750.1,3067.42
17795,2908.05
17807.9,2742.98
17788.4,2578.56
17737.2,2421.11
17674.9,2304.71
17550.7,2243.29
17034.2,2759.84
16892.7,2759.84
16376.2,2243.29
16251.9,2304.71
16176.8,2452.26
16131.9,2611.63
16119,2776.7
15804,2776.7
15804,2677.06
15771.7,2514.66
15708.3,2361.69
15616.3,2224.02
15564.9,2172.58
16446.9,2172.58
16963.4,2689.13
17480,2172.58
17418.6,2048.34
17271,1973.22
17111.7,1928.33
16946.6,1915.39
16782.2,1934.91
16624.7,1986.13
16508.3,2048.34
16446.9,2172.58
15564.9,2172.58
15499.3,2106.94
15361.6,2014.96
15208.6,1951.59
15046.2,1919.29
14880.7,1919.29
14718.3,1951.59
14565.3,2014.96
14427.6,2106.94
14310.5,2224.02
14218.6,2361.69
14155.2,2514.66
14122.9,2677.06
13805.2,2677.06
13805.2,2169.29
13800.4,2120.28
13786.1,2073.16
13762.9,2029.73
13731.6,1991.66
13693.6,1960.42
13650.1,1937.2
13603,1922.91
13554,1918.08
13370.9,1918.08
13370.9,1667.32
19794.7,1667.32
19806,1678.63
19806,1918.08
19622.9,1918.08
19573.9,1922.91
19526.8,1937.2
19483.3,1960.42
19445.3,1991.66
19414,2029.73
19390.8,2073.16
19376.5,2120.28
19371.7,2169.29
19371.7,3350.39
19376.5,3399.4
19390.8,3446.53
19414,3489.96
19445.3,3528.03
19483.3,3559.27
19526.8,3582.48
19573.9,3596.78
19622.9,3601.6
20804,3601.6
20853,3596.78
20900.1,3582.48
20943.6,3559.27
20981.6,3528.03
21012.9,3489.96
21036.1,3446.53
21050.4,3399.4
21055.2,3350.39
21055.2,2677.06
21372.9,2677.06
21372.9,2842.63
21405.2,3005.02
21468.6,3157.99
21560.5,3295.66
21677.6,3412.74
21806,3498.5
21806,4589.59
21782.7,4596.65
21739.2,4619.87
21701.2,4651.11
21669.9,4689.18
21646.7,4732.61
21632.4,4779.73
21627.6,4828.74
21627.6,5616.14
21632.4,5665.15
21646.7,5712.28
21669.9,5755.71
21701.2,5793.77
21739.2,5825.01
21782.7,5848.23
21829.8,5862.52
21878.8,5867.35
22548.1,5867.35
22597.1,5862.52
22644.2,5848.23
22687.7,5825.01
22725.7,5793.77
22757,5755.71
22780.2,5712.28
22794.5,5665.15
22799.3,5616.14
22799.3,4828.74
22794.5,4779.73
22780.2,4732.61
22757,4689.18
22725.7,4651.11
22687.7,4619.87
22644.2,4596.65
22620.9,4589.59
22620.9,3498.5
22749.3,3412.74
22814.9,3347.11
23696.9,3347.11
23758.3,3471.34
23905.9,3546.46
24065.2,3591.36
24230.3,3604.29
24394.7,3584.78
24552.2,3533.56
24668.6,3471.34
24730,3347.11
24213.4,2830.55
23696.9,3347.11
22814.9,3347.11
22866.3,3295.66
22958.3,3157.99
23021.7,3005.02
23054,2842.63
23054,2776.7
23369,2776.7
23388.5,2941.12
23439.7,3098.58
23501.9,3214.98
23626.2,3276.4
24142.7,2759.84
24284.2,2759.84
24800.7,3276.4
24924.9,3214.98
25000.1,3067.42
25045,2908.05
25057.9,2742.98
25038.4,2578.56
24987.2,2421.11
24924.9,2304.71
24800.7,2243.29
24284.2,2759.84
24142.7,2759.84
23626.2,2243.29
23501.9,2304.71
23426.8,2452.26
23381.9,2611.63
23369,2776.7
23054,2776.7
23054,2677.06
23021.7,2514.66
22958.3,2361.69
22866.3,2224.02
22814.9,2172.58
23696.9,2172.58
24213.4,2689.13
24730,2172.58
24668.6,2048.34
24521,1973.22
24361.7,1928.33
24196.6,1915.39
24032.2,1934.91
23874.7,1986.13
23758.3,2048.34
23696.9,2172.58
22814.9,2172.58
22749.3,2106.94
22611.6,2014.96
22458.6,1951.59
22296.2,1919.29
22130.7,1919.29
21968.3,1951.59
21815.3,2014.96
21677.6,2106.94
21560.5,2224.02
21468.6,2361.69
21405.2,2514.66
21372.9,2677.06
21055.2,2677.06
21055.2,2169.29
21050.4,2120.28
21036.1,2073.16
21012.9,2029.73
20981.6,1991.66
20943.6,1960.42
20900.1,1937.2
20853,1922.91
20804,1918.08
20620.9,1918.08
20620.9,1529.86
20622.9,1509.84
20620.7,1487.32
20615,1429.96
20597.1,1371.03
20591.7,1353.15
20553.9,1282.36
20533.9,1258
20503,1220.32
20487.4,1207.56
20265.7,985.865
20253,970.317
20190.9,919.396
20120.1,881.559
20043.3,858.259
19983.5,852.363
19983.5,852.363
19963.4,850.392
19943.4,852.363
12983.5,852.363
12963.4,850.391
12943.4,852.363
6483.46,852.363
6463.44,850.391
6443.43,852.363
6443.43,852.363
6383.56,858.259
6306.75,881.559
6273.8,899.172
6235.96,919.396
6189.46,957.558
6173.92,970.317
6161.16,985.863
5439.46,1707.56
5423.92,1720.32
5411.16,1735.86
5411.16,1735.86
5373,1782.36
5335.16,1853.15
5315.46,1918.08
5122.89,1918.08
5073.88,1922.91
5026.76,1937.2
4983.33,1960.42
4945.26,1991.66
4914.02,2029.73
4890.8,2073.16
4876.51,2120.28
4871.68,2169.29
2289.88,2169.29
3861.65,309.843
25563.4,309.843
Z" /> 
</g>
</g>
</g>
<g style="fill:#FFFFFF; fill-opacity:1.0; 
stroke:#FFFFFF; stroke-width:100; stroke-opacity:1; 
stroke-linecap:round; stroke-linejoin:round;">
</g>
<g style="fill:#FFFFFF; fill-opacity:1.0; 
stroke:#FFFFFF; stroke-width:0; stroke-opacity:1; 
stroke-linecap:round; stroke-linejoin:round;">
<circle cx="16463.4" cy="11759.8" r="299.213" /> 
</g>
<g style="fill:#FFFFFF; fill-opacity:1.0; 
stroke:#FFFFFF; stroke-width:39.3701; stroke-opacity:1; 
stroke-linecap:round; stroke-linejoin:round;">
</g>
<g style="fill:#FFFFFF; fill-opacity:1.0; 
stroke:#FFFFFF; stroke-width:0; stroke-opacity:1; 
stroke-linecap:round; stroke-linejoin:round;">
<circle cx="10463.4" cy="11759.8" r="299.213" /> 
</g>
<g style="fill:#FFFFFF; fill-opacity:1.0; 
stroke:#FFFFFF; stroke-width:39.3701; stroke-opacity:1; 
stroke-linecap:round; stroke-linejoin:round;">
</g>
<g style="fill:#FFFFFF; fill-opacity:1.0; 
stroke:#FFFFFF; stroke-width:0; stroke-opacity:1; 
stroke-linecap:round; stroke-linejoin:round;">
<circle cx="14463.4" cy="11759.8" r="299.213" /> 
</g>
<g style="fill:#FFFFFF; fill-opacity:1.0; 
stroke:#FFFFFF; stroke-width:39.3701; stroke-opacity:1; 
stroke-linecap:round; stroke-linejoin:round;">
</g>
<g style="fill:#FFFFFF; fill-opacity:1.0; 
stroke:#FFFFFF; stroke-width:0; stroke-opacity:1; 
stroke-linecap:round; stroke-linejoin:round;">
<circle cx="12463.4" cy="11759.8" r="299.213" /> 
</g>
<g style="fill:#FFFFFF; fill-opacity:1.0; 
stroke:#FFFFFF; stroke-width:39.3701; stroke-opacity:1; 
stroke-linecap:round; stroke-linejoin:round;">
</g>
<g style="fill:#FFFFFF; fill-opacity:1.0; 
stroke:#FFFFFF; stroke-width:0; stroke-opacity:1; 
stroke-linecap:round; stroke-linejoin:round;">
<circle cx="24213.4" cy="2759.84" r="299.213" /> 
</g>
<g style="fill:#FFFFFF; fill-opacity:1.0; 
stroke:#FFFFFF; stroke-width:39.3701; stroke-opacity:1; 
stroke-linecap:round; stroke-linejoin:round;">
</g>
<g style="fill:#FFFFFF; fill-opacity:1.0; 
stroke:#FFFFFF; stroke-width:0; stroke-opacity:1; 
stroke-linecap:round; stroke-linejoin:round;">
<circle cx="22213.4" cy="2759.84" r="299.213" /> 
</g>
<g style="fill:#FFFFFF; fill-opacity:1.0; 
stroke:#FFFFFF; stroke-width:39.3701; stroke-opacity:1; 
stroke-linecap:round; stroke-linejoin:round;">
</g>
<g style="fill:#FFFFFF; fill-opacity:1.0; 
stroke:#FFFFFF; stroke-width:0; stroke-opacity:1; 
stroke-linecap:round; stroke-linejoin:round;">
<circle cx="20213.4" cy="2759.84" r="299.213" /> 
</g>
<g style="fill:#FFFFFF; fill-opacity:1.0; 
stroke:#FFFFFF; stroke-width:39.3701; stroke-opacity:1; 
stroke-linecap:round; stroke-linejoin:round;">
</g>
<g style="fill:#FFFFFF; fill-opacity:1.0; 
stroke:#FFFFFF; stroke-width:0; stroke-opacity:1; 
stroke-linecap:round; stroke-linejoin:round;">
<circle cx="9713.44" cy="2759.84" r="299.213" /> 
</g>
<g style="fill:#FFFFFF; fill-opacity:1.0; 
stroke:#FFFFFF; stroke-width:39.3701; stroke-opacity:1; 
stroke-linecap:round; stroke-linejoin:round;">
</g>
<g style="fill:#FFFFFF; fill-opacity:1.0; 
stroke:#FFFFFF; stroke-width:0; stroke-opacity:1; 
stroke-linecap:round; stroke-linejoin:round;">
<circle cx="7713.44" cy="2759.84" r="299.213" /> 
</g>
<g style="fill:#FFFFFF; fill-opacity:1.0; 
stroke:#FFFFFF; stroke-width:39.3701; stroke-opacity:1; 
stroke-linecap:round; stroke-linejoin:round;">
</g>
<g style="fill:#FFFFFF; fill-opacity:1.0; 
stroke:#FFFFFF; stroke-width:0; stroke-opacity:1; 
stroke-linecap:round; stroke-linejoin:round;">
<circle cx="5713.44" cy="2759.84" r="299.213" /> 
</g>
<g style="fill:#FFFFFF; fill-opacity:1.0; 
stroke:#FFFFFF; stroke-width:39.3701; stroke-opacity:1; 
stroke-linecap:round; stroke-linejoin:round;">
</g>
<g style="fill:#FFFFFF; fill-opacity:1.0; 
stroke:#FFFFFF; stroke-width:0; stroke-opacity:1; 
stroke-linecap:round; stroke-linejoin:round;">
<circle cx="3713.44" cy="7259.84" r="629.921" /> 
</g>
<g style="fill:#FFFFFF; fill-opacity:1.0; 
stroke:#FFFFFF; stroke-width:39.3701; stroke-opacity:1; 
stroke-linecap:round; stroke-linejoin:round;">
</g>
<g style="fill:#FFFFFF; fill-opacity:1.0; 
stroke:#FFFFFF; stroke-width:0; stroke-opacity:1; 
stroke-linecap:round; stroke-linejoin:round;">
<circle cx="24963.4" cy="7259.84" r="629.921" /> 
</g>
<g style="fill:#FFFFFF; fill-opacity:1.0; 
stroke:#FFFFFF; stroke-width:39.3701; stroke-opacity:1; 
stroke-linecap:round; stroke-linejoin:round;">
</g>
<g style="fill:#FFFFFF; fill-opacity:1.0; 
stroke:#FFFFFF; stroke-width:0; stroke-opacity:1; 
stroke-linecap:round; stroke-linejoin:round;">
<circle cx="16963.4" cy="2759.84" r="299.213" /> 
</g>
<g style="fill:#FFFFFF; fill-opacity:1.0; 
stroke:#FFFFFF; stroke-width:39.3701; stroke-opacity:1; 
stroke-linecap:round; stroke-linejoin:round;">
</g>
<g style="fill:#FFFFFF; fill-opacity:1.0; 
stroke:#FFFFFF; stroke-width:0; stroke-opacity:1; 
stroke-linecap:round; stroke-linejoin:round;">
<circle cx="14963.4" cy="2759.84" r="299.213" /> 
</g>
<g style="fill:#FFFFFF; fill-opacity:1.0; 
stroke:#FFFFFF; stroke-width:39.3701; stroke-opacity:1; 
stroke-linecap:round; stroke-linejoin:round;">
</g>
<g style="fill:#FFFFFF; fill-opacity:1.0; 
stroke:#FFFFFF; stroke-width:0; stroke-opacity:1; 
stroke-linecap:round; stroke-linejoin:round;">
<circle cx="12963.4" cy="2759.84" r="299.213" /> 
</g>
<g style="fill:#FFFFFF; fill-opacity:1.0; 
stroke:#FFFFFF; stroke-width:39.3701; stroke-opacity:1; 
stroke-linecap:round; stroke-linejoin:round;">
</g>
<g style="fill:#FFFFFF; fill-opacity:1.0; 
stroke:#FFFFFF; stroke-width:0; stroke-opacity:1; 
stroke-linecap:round; stroke-linejoin:round;">
<circle cx="7713.44" cy="11759.8" r="299.213" /> 
</g>
<g style="fill:#FFFFFF; fill-opacity:1.0; 
stroke:#FFFFFF; stroke-width:39.3701; stroke-opacity:1; 
stroke-linecap:round; stroke-linejoin:round;">
</g>
<g style="fill:#FFFFFF; fill-opacity:1.0; 
stroke:#FFFFFF; stroke-width:0; stroke-opacity:1; 
stroke-linecap:round; stroke-linejoin:round;">
<circle cx="5713.44" cy="11759.8" r="299.213" /> 
</g>
<g style="fill:#FFFFFF; fill-opacity:1.0; 
stroke:#FFFFFF; stroke-width:39.3701; stroke-opacity:1; 
stroke-linecap:round; stroke-linejoin:round;">
</g>
<g style="fill:#000000; fill-opacity:1.0; 
stroke:#000000; stroke-width:39.3701; stroke-opacity:1; 
stroke-linecap:round; stroke-linejoin:round;">
</g>
<g style="fill:#000000; fill-opacity:1.0; 
stroke:#000000; stroke-width:19.685; stroke-opacity:1; 
stroke-linecap:round; stroke-linejoin:round;">
</g>
<g style="fill:#000000; fill-opacity:0.0; 
stroke:#000000; stroke-width:19.685; stroke-opacity:1; 
stroke-linecap:round; stroke-linejoin:round;">
<path d="M3713 9
L25713 9
" />
<path d="M1713 2259
L3713 9
" />
<path d="M1713 12509
L1713 2259
" />
<path d="M2963 14259
L1713 12509
" />
<path d="M25963 14009
L2963 14259
" />
<path d="M26963 12259
L25963 14009
" />
<path d="M26963 1759
L26963 12259
" />
<path d="M25713 9
L26963 1759
" />
<g >
</g>
<g >
</g>
<g >
</g>
<g >
</g>
<g >
</g>
<g >
</g>
<g >
</g>
<g >
</g>
<g >
</g>
<g >
</g>
<g >
</g>
<g >
</g>
<g >
</g>
<g >
</g>
</g> 
</svg>
